<?xml version="1.0" encoding="utf-8"?>
<!-- Generator: Adobe Illustrator 16.0.0, SVG Export Plug-In . SVG Version: 6.00 Build 0)  -->
<!DOCTYPE svg PUBLIC "-//W3C//DTD SVG 1.1//EN" "http://www.w3.org/Graphics/SVG/1.1/DTD/svg11.dtd">
<svg version="1.1" id="Layer_1" xmlns="http://www.w3.org/2000/svg" xmlns:xlink="http://www.w3.org/1999/xlink" x="0px" y="0px"
	 width="192px" height="192px" viewBox="0 0 192 192" enable-background="new 0 0 192 192" xml:space="preserve">
<circle fill="#6EC96B" cx="96" cy="96" r="96"/>
<g>
	<g>
		<path fill="#FFFFFF" d="M100.695,97.729c-1.502,0-2.683-1.073-2.683-2.575c0-1.501,1.181-2.682,2.683-2.682h23.172h0.322
			c1.287,0.107,2.359,1.288,2.359,2.682v25.747v0.43c-0.106,0.751-0.428,1.502-0.965,1.931c-6.651,5.257-15.02,8.261-24.245,8.261
			c-21.563-0.107-39.05-16.95-39.05-38.191c0-20.919,17.487-37.977,39.05-37.977c9.333,0,17.594,3.218,24.352,8.475
			c0.966,0.751,1.288,2.575,0.323,3.648c-0.858,1.073-2.468,1.287-3.756,0.429c-5.471-4.506-12.873-7.295-20.919-7.295
			c-18.774,0-33.793,14.697-33.793,32.72c0,18.237,15.019,32.935,33.793,32.935c7.295,0,14.269-2.359,19.847-6.437v-22.1H100.695z"
			/>
	</g>
	<g>
		<path fill="#FFFFFF" d="M157.621,78.956c13.839,0,24.889,12.016,24.889,26.284c0,14.269-11.05,26.283-24.889,26.283
			c-13.732,0-24.89-12.015-24.89-26.283C132.731,90.971,143.889,78.956,157.621,78.956z M157.621,126.373
			c10.728,0,19.739-9.44,19.739-21.134s-9.012-21.241-19.739-21.241c-10.729,0-19.739,9.548-19.739,21.241
			S146.893,126.373,157.621,126.373z"/>
	</g>
	<path fill="#FFFFFF" d="M50.076,76.158c-3.02,0-5.468,2.453-5.468,5.479c0,3.025,2.448,5.479,5.468,5.479s5.468-2.453,5.468-5.479
		C55.544,78.61,53.096,76.158,50.076,76.158z"/>
	<path fill="#FFFFFF" d="M19.111,110.611c5.733,3.359,9.172-1.569,11.762-6.314c0.113-0.457,0.279-0.92,0.52-1.388
		c2.005-3.907,4.098-7.776,6.287-11.584c-4.277-1.367-8.188-0.119-11.263,4.197c-2.501,3.51-8.352,0.144-5.821-3.408
		c5.952-8.352,14.828-10.425,23.714-5.139c0.369,0.22,0.666,0.475,0.903,0.755c0.135,0.053,0.269,0.111,0.401,0.173
		c0.361,0.073,0.733,0.212,1.109,0.436c5.523,3.286,10.657,2.663,14.491-2.718c0.799-1.121,2.927-4.34,3.635-6.241
		c0.82-2.204,3.909,7.231,2.186,9.648c-4.891,6.864-11.759,9.477-18.984,7.259c-2.267,3.901-4.419,7.871-6.487,11.884
		c3.056,1.565,5.886,3.514,8.517,5.808c0.113,0.1,0.214,0.202,0.31,0.305c0.573,0.295,1.078,0.792,1.434,1.528
		c1.768,3.661,3.537,7.321,5.305,10.982c1.898,3.932-4.21,6.783-6.102,2.868c-1.681-3.479-3.362-6.96-5.044-10.438
		c-0.227-0.128-0.453-0.281-0.669-0.472c-3.051-2.66-6.545-4.817-10.373-6.153c-0.188-0.064-0.36-0.145-0.522-0.231
		c-4.687,5.958-11.223,9.238-19.049,4.655C11.244,114.609,14.975,108.188,19.111,110.611z"/>
</g>
</svg>
