<?xml version="1.0" encoding="utf-8"?>
<!-- Generator: Adobe Illustrator 16.0.0, SVG Export Plug-In . SVG Version: 6.00 Build 0)  -->
<!DOCTYPE svg PUBLIC "-//W3C//DTD SVG 1.1//EN" "http://www.w3.org/Graphics/SVG/1.1/DTD/svg11.dtd">
<svg version="1.1" id="Layer_1" xmlns="http://www.w3.org/2000/svg" xmlns:xlink="http://www.w3.org/1999/xlink" x="0px" y="0px"
	 width="700px" height="140px" viewBox="0 0 700 140" enable-background="new 0 0 700 140" xml:space="preserve">
<g>
	<path fill="#FFFFFF" d="M175.503,75.651c-2.526,0-4.51-1.805-4.51-4.33s1.984-4.51,4.51-4.51h38.967h0.542
		c2.165,0.181,3.969,2.165,3.969,4.51v43.297v0.722c-0.18,1.263-0.722,2.526-1.624,3.247c-11.185,8.84-25.257,13.892-40.771,13.892
		c-36.261-0.181-65.667-28.504-65.667-64.224c0-35.179,29.406-63.863,65.667-63.863c15.695,0,29.586,5.412,40.952,14.252
		c1.624,1.263,2.165,4.33,0.542,6.134c-1.443,1.804-4.149,2.165-6.314,0.722c-9.201-7.577-21.648-12.268-35.179-12.268
		c-31.571,0-56.828,24.715-56.828,55.023c0,30.668,25.257,55.384,56.828,55.384c12.268,0,23.994-3.969,33.375-10.824V75.651H175.503
		z"/>
</g>
<g>
	<path fill="#FFFFFF" d="M397.504,75.651c-2.526,0-4.511-1.805-4.511-4.33s1.984-4.51,4.511-4.51h38.967h0.541
		c2.165,0.181,3.969,2.165,3.969,4.51v43.297v0.722c-0.18,1.263-0.721,2.526-1.623,3.247c-11.186,8.84-25.257,13.892-40.771,13.892
		c-36.262-0.181-65.667-28.504-65.667-64.224c0-35.179,29.406-63.863,65.667-63.863c15.695,0,29.586,5.412,40.951,14.252
		c1.624,1.263,2.166,4.33,0.542,6.134c-1.443,1.804-4.149,2.165-6.314,0.722c-9.2-7.577-21.648-12.268-35.179-12.268
		c-31.57,0-56.828,24.715-56.828,55.023c0,30.668,25.257,55.384,56.828,55.384c12.268,0,23.994-3.969,33.375-10.824V75.651H397.504z
		"/>
</g>
<g>
	<path fill="#FFFFFF" d="M271.231,44.08c23.272,0,41.854,20.206,41.854,44.199c0,23.994-18.582,44.199-41.854,44.199
		c-23.092,0-41.854-20.205-41.854-44.199C229.377,64.286,248.14,44.08,271.231,44.08z M271.231,123.819
		c18.04,0,33.194-15.876,33.194-35.54s-15.154-35.72-33.194-35.72c-18.041,0-33.195,16.056-33.195,35.72
		S253.191,123.819,271.231,123.819z"/>
</g>
<g>
	<path fill="#FFFFFF" d="M450.207,19.545c0-2.346,1.984-4.33,4.33-4.33c2.525,0,4.51,1.984,4.51,4.33v4.149
		c0,2.526-1.984,4.691-4.51,4.691c-2.346,0-4.33-2.165-4.33-4.691V19.545z M450.207,48.41c0-2.526,1.984-4.33,4.33-4.33
		c2.525,0,4.51,1.804,4.51,4.33v79.738c0,2.346-1.984,4.33-4.51,4.33c-2.346,0-4.33-1.984-4.33-4.33V48.41z"/>
</g>
<g>
	<path fill="#FFFFFF" d="M589.463,88.46c0-24.535,19.123-44.38,42.936-44.38c22.731,0,40.771,18.041,42.576,41.133v0.18v0.542
		c0,2.345-1.984,3.969-4.33,3.969h-72.522c0.901,19.303,16.056,33.916,34.276,33.916c11.727,0,22.551-6.134,28.504-16.057
		c1.264-2.164,3.969-2.525,5.773-1.442c1.984,1.442,2.706,3.969,1.443,6.133c-7.577,12.088-20.746,20.025-35.721,20.025
		C608.586,132.479,589.463,112.634,589.463,88.46z M598.663,81.424h66.931c-2.887-16.597-16.959-28.684-33.195-28.684
		C615.802,52.74,601.91,64.646,598.663,81.424z"/>
</g>
<path fill="#E56161" d="M569.982,50.28c-10.687-9.878-28.011-9.878-38.699,0l-7.256,6.707l-7.259-6.707
	c-10.686-9.878-28.01-9.878-38.697,0c-12.022,11.111-12.022,29.129,0,40.241L524.027,133l45.955-42.479
	C582.005,79.408,582.005,61.391,569.982,50.28z M563.176,83.916l-39.148,36.781l-39.146-36.781
	c-3.948-3.65-5.476-8.449-5.476-13.518c0-5.065,0.881-9.221,4.829-12.87c3.489-3.226,8.173-5.001,13.187-5.001
	c5.018,0,9.701,3.063,13.189,6.289l13.42,11.76l13.414-11.76c3.489-3.226,8.174-6.289,13.189-6.289
	c5.017,0,9.701,1.775,13.188,5.002c3.949,3.648,4.828,7.806,4.83,12.871C568.653,75.467,567.125,80.266,563.176,83.916z"/>
<path fill="#FFFFFF" d="M90.381,39.375c-5.079,0-9.196,4.125-9.196,9.213c0,5.088,4.117,9.213,9.196,9.213s9.196-4.125,9.196-9.213
	C99.577,43.5,95.459,39.375,90.381,39.375z"/>
<path fill="#FFFFFF" d="M38.309,97.313c9.641,5.648,15.424-2.639,19.779-10.618c0.19-0.769,0.47-1.548,0.873-2.334
	c3.372-6.571,6.891-13.076,10.573-19.48c-7.192-2.298-13.769-0.199-18.94,7.058c-4.206,5.903-14.044,0.242-9.789-5.731
	c10.009-14.045,24.935-17.53,39.878-8.642c0.621,0.37,1.121,0.799,1.52,1.27c0.227,0.088,0.452,0.188,0.674,0.292
	c0.608,0.123,1.233,0.357,1.866,0.733c9.289,5.525,17.921,4.478,24.368-4.57c1.344-1.886,4.922-7.298,6.112-10.495
	c1.379-3.707,6.573,12.16,3.676,16.226c-8.225,11.543-19.773,15.937-31.923,12.207c-3.812,6.561-7.433,13.237-10.91,19.984
	c5.139,2.633,9.898,5.908,14.322,9.767c0.191,0.167,0.36,0.34,0.521,0.513c0.963,0.496,1.812,1.331,2.411,2.569
	c2.972,6.157,5.948,12.312,8.92,18.469c3.193,6.611-7.08,11.406-10.261,4.823c-2.826-5.851-5.654-11.704-8.481-17.553
	c-0.382-0.214-0.762-0.472-1.126-0.792c-5.131-4.475-11.007-8.102-17.443-10.348c-0.317-0.109-0.606-0.243-0.879-0.391
	c-7.882,10.02-18.872,15.536-32.034,7.83C25.08,104.037,31.353,93.239,38.309,97.313z"/>
</svg>
